<?xml version="1.0" standalone="no"?>
<!DOCTYPE svg PUBLIC "-//W3C//DTD SVG 1.1//EN" "http://www.w3.org/Graphics/SVG/1.1/DTD/svg11.dtd" >
<svg xmlns="http://www.w3.org/2000/svg" xmlns:xlink="http://www.w3.org/1999/xlink" version="1.1">
<metadata></metadata>
<defs>
<font id="vk_sans_displaymedium" horiz-adv-x="1234" >
<font-face units-per-em="2048" ascent="1556" descent="-492" />
<missing-glyph horiz-adv-x="491" />
<glyph horiz-adv-x="0" />
<glyph unicode="&#xd;" horiz-adv-x="1228" />
<glyph unicode=" "  horiz-adv-x="491" />
<glyph unicode="&#x09;" horiz-adv-x="491" />
<glyph unicode="&#xa0;" horiz-adv-x="491" />
<glyph unicode="!" horiz-adv-x="552" d="M346 434h-139l-31 623v387h201v-387zM184 16.5q-37 36.5 -37 89.5t37 91.5t92 38.5q53 0 91.5 -38t38.5 -92q0 -53 -38 -89.5t-92 -36.5q-55 0 -92 36.5z" />
<glyph unicode="&#x22;" horiz-adv-x="727" d="M283 977h-146l-20 467h186zM588 977h-146l-20 467h186z" />
<glyph unicode="#" horiz-adv-x="1466" d="M418 0h-174l82 383h-230l37 160h227l74 358h-225l33 160h225l84 383h174l-84 -383h326l82 383h174l-82 -383h229l-35 -160h-229l-74 -358h228l-35 -160h-226l-84 -383h-174l84 383h-323zM608 901l-73 -358h323l74 358h-324z" />
<glyph unicode="$" horiz-adv-x="1157" d="M859 728q85 -44 142.5 -121t57.5 -193q0 -158 -104.5 -260.5t-272.5 -126.5v-228h-168v226q-164 20 -282.5 120.5t-165.5 260.5l202 32q57 -115 133 -169t189 -54t182.5 50t69.5 136q0 61 -39 103.5t-96.5 69t-159.5 61.5q-129 45 -212 88t-141.5 120t-58.5 195 q0 160 105.5 262.5t273.5 118.5v226h168v-232q135 -27 232.5 -117t144.5 -229l-199 -33q-41 94 -111.5 144.5t-166.5 50.5q-100 0 -165 -48t-65 -130q0 -61 39 -103.5t98.5 -70t157.5 -62.5q127 -43 212 -87z" />
<glyph unicode="%" horiz-adv-x="1710" d="M184.5 879.5q-98.5 95.5 -98.5 244.5q0 98 45 176t125 121t180 43q98 0 178 -44t125 -120.5t45 -175.5q0 -150 -98 -245t-250 -95q-153 0 -251.5 95.5zM506 0h-191l891 1444h191zM569.5 990q51.5 52 51.5 134t-51.5 134.5t-133.5 52.5t-134 -51.5t-52 -135.5 q0 -82 52 -134t134 -52t133.5 52zM1025 75q-97 95 -97 247q0 150 97 243.5t251 93.5q100 0 179 -43t124 -119.5t45 -174.5t-45 -176t-124 -122t-179 -44q-154 0 -251 95zM1409 185.5q51 52.5 51 136.5q0 82 -51 133t-133 51q-84 0 -135 -51.5t-51 -132.5q0 -84 52 -136.5 t134 -52.5t133 52.5z" />
<glyph unicode="&#x26;" horiz-adv-x="1476" d="M1440 2h-266l-201 205q-125 -117 -238.5 -171t-228.5 -54q-117 0 -210 47t-146.5 132t-53.5 193q0 109 68.5 199t236.5 195l23 14l-23 24q-88 88 -128 162t-40 160q0 100 48.5 180t134.5 125t194 45q106 0 190.5 -44t132.5 -122t48 -174q0 -94 -57.5 -176t-198.5 -174 l-27 -16l285 -287q66 76 201 250h223q-158 -213 -303 -375zM586 866l8 4q106 68 153.5 122.5t47.5 121.5q0 78 -52.5 127t-134.5 49q-84 0 -136 -49t-52 -125q0 -51 27.5 -95t91.5 -108zM686 200q76 38 168 126l-315 321l-27 -18q-113 -74 -161 -137.5t-48 -131.5 q0 -86 64.5 -142t167.5 -56q75 0 151 38z" />
<glyph unicode="'" horiz-adv-x="421" d="M283 977h-146l-20 467h186z" />
<glyph unicode="(" horiz-adv-x="655" d="M416 -420q-147 190 -233.5 436t-86.5 523q0 279 86 521.5t234 434.5h202q-145 -190 -229 -436t-84 -520t84 -522t229 -437h-202z" />
<glyph unicode=")" horiz-adv-x="655" d="M35 -420q145 190 230 437t85 522q0 274 -85 520t-230 436h203q147 -193 233 -435.5t86 -520.5q0 -276 -86 -522t-233 -437h-203z" />
<glyph unicode="*" horiz-adv-x="907" d="M453 954l-144 -227l-143 98l182 213l-272 72l53 162l256 -98l-16 270h170l-17 -270l256 98l53 -162l-274 -74l184 -211l-143 -98z" />
<glyph unicode="+" d="M705 215h-175v391h-393v176h393v392h175v-392h393v-176h-393v-391z" />
<glyph unicode="," horiz-adv-x="532" d="M264 -240h-160l78 459h199z" />
<glyph unicode="-" horiz-adv-x="868" d="M752 479h-635v191h635v-191z" />
<glyph unicode="." horiz-adv-x="532" d="M174 16.5q-37 36.5 -37 89.5t37 91.5t92 38.5q53 0 91 -38t38 -92q0 -53 -38 -89.5t-91 -36.5q-55 0 -92 36.5z" />
<glyph unicode="/" horiz-adv-x="792" d="M199 -410h-199l594 1905h199z" />
<glyph unicode="0" horiz-adv-x="1327" d="M369 76q-129 92 -201 260t-72 385t72 385t201 260t295 92t294.5 -92t199.5 -260t71 -385t-71 -385t-200 -260t-294 -92q-166 0 -295 92zM845 245.5q79 67.5 122 190.5t43 285q0 164 -43 286.5t-122 189.5t-181 67q-104 0 -182.5 -67t-121.5 -189.5t-43 -286.5 q0 -162 43 -285t121 -190.5t183 -67.5q102 0 181 67.5z" />
<glyph unicode="1" horiz-adv-x="749" d="M338 0v1067h-283v193h195q41 0 64.5 24.5t23.5 65.5v94h211v-1444h-211z" />
<glyph unicode="2" horiz-adv-x="1134" d="M100 0v248l541 495q84 78 125 146.5t41 148.5q0 104 -65.5 168t-170.5 64q-197 0 -286 -248l-199 33q53 186 180 297.5t314 111.5q129 0 231 -54t159.5 -151.5t57.5 -218.5q0 -125 -62.5 -223t-193.5 -219l-405 -371v-30l671 6v-203h-938z" />
<glyph unicode="3" horiz-adv-x="1134" d="M968.5 623q69.5 -86 69.5 -217q0 -123 -61.5 -220.5t-172 -151.5t-251.5 -54q-197 0 -334 104t-184 276l203 35q49 -111 125.5 -166t187.5 -55q121 0 197.5 65.5t76.5 172.5q0 102 -74.5 166.5t-197.5 64.5h-162v186h162q109 0 178.5 61.5t69.5 160.5q0 98 -69.5 158.5 t-180.5 60.5q-96 0 -169 -52.5t-112 -144.5l-198 33q61 174 187 266t298 92q133 0 236.5 -51t162 -142t58.5 -206t-61.5 -197t-155.5 -120q102 -39 171.5 -125z" />
<glyph unicode="4" horiz-adv-x="1198" d="M973 0h-205v309h-702v203l598 932h309v-940h180v-195h-180v-309zM737 1227l-452 -723h483v723h-31z" />
<glyph unicode="5" horiz-adv-x="1232" d="M909.5 905.5q106.5 -63.5 166 -176.5t59.5 -254q0 -143 -64.5 -256t-179.5 -176t-262 -63q-193 0 -329 104t-183 276l202 35q47 -109 124 -165t182 -56q131 0 212 84t81 217t-79 216t-204 83q-90 0 -161 -42t-112 -107h-204l84 819h829v-195h-651l-37 -375q117 94 285 95 q135 0 241.5 -63.5z" />
<glyph unicode="6" horiz-adv-x="1214" d="M900 898.5q112 -62.5 174.5 -172.5t62.5 -249q0 -143 -68 -257t-187.5 -177t-273.5 -63q-156 0 -276.5 60t-188 172t-67.5 259q0 104 40 216t132 251l340 506h248l-347 -504q74 20 158 21q141 0 253 -62.5zM834 257q86 83 86 218q0 133 -87.5 216t-224.5 83 q-139 0 -227 -83t-88 -216q0 -135 88 -218t227 -83q140 0 226 83z" />
<glyph unicode="7" horiz-adv-x="1103" d="M446 0h-229l565 1212v31h-757v201h991v-221z" />
<glyph unicode="8" horiz-adv-x="1236" d="M1073.5 614q65.5 -88 65.5 -211t-65.5 -220t-183.5 -150t-272 -53q-152 0 -270.5 54t-185 150.5t-66.5 218.5q0 123 64.5 212.5t175.5 127.5q-86 43 -142.5 125t-56.5 193q0 117 61.5 208t171 142t248.5 51q141 0 250 -51t169.5 -142t60.5 -208q0 -111 -55.5 -193 t-143.5 -125q109 -41 174.5 -129zM423 1207.5q-75 -60.5 -75 -156.5q0 -98 75 -160t195 -62q119 0 194 61.5t75 160.5q0 96 -75 156.5t-194 60.5q-120 0 -195 -60.5zM838 240.5q84 66.5 84 175.5q0 106 -84 171.5t-220 65.5q-135 0 -220 -65.5t-85 -171.5t85 -174t220 -68 q136 0 220 66.5z" />
<glyph unicode="9" horiz-adv-x="1214" d="M881.5 1403.5q119.5 -60.5 187.5 -172t68 -258.5q0 -106 -39 -218t-131 -249l-342 -506h-246l344 504q-74 -20 -156 -21q-141 0 -252.5 62.5t-175 172t-63.5 249.5q0 143 67.5 256.5t188.5 177t274 63.5q156 0 275.5 -60.5zM832.5 753q87.5 83 87.5 216q0 135 -87.5 218 t-226.5 83t-226 -83t-87 -218q0 -133 87 -216t226 -83t226.5 83z" />
<glyph unicode=":" horiz-adv-x="532" d="M174 16.5q-37 36.5 -37 89.5t37 91.5t92 38.5q53 0 91 -38t38 -92q0 -53 -38 -89.5t-91 -36.5q-55 0 -92 36.5zM174 860.5q-37 36.5 -37 89.5t37 91.5t92 38.5q53 0 91 -38t38 -92q0 -53 -38 -89.5t-91 -36.5q-55 0 -92 36.5z" />
<glyph unicode=";" horiz-adv-x="532" d="M264 -240h-160l78 459h199zM174 860.5q-37 36.5 -37 89.5t37 91.5t92 38.5q53 0 91 -38t38 -92q0 -53 -38 -89.5t-91 -36.5q-55 0 -92 36.5z" />
<glyph unicode="&#x3c;" d="M1077 365v-191l-919 416v211l919 413v-192l-712 -317v-23z" />
<glyph unicode="=" d="M1098 807h-961v174h961v-174zM1098 408h-961v174h961v-174z" />
<glyph unicode="&#x3e;" d="M1077 590l-919 -416v191l712 317v23l-712 317v192l919 -413v-211z" />
<glyph unicode="?" horiz-adv-x="1021" d="M375 516q0 127 43 194.5t135 129.5q98 66 138 125t40 120q0 80 -59.5 132.5t-161.5 52.5q-94 0 -161.5 -47t-106.5 -136l-199 33q57 168 180 256t291 88q127 0 225.5 -49t153.5 -134t55 -187q0 -203 -235 -367q-78 -51 -112 -95t-34 -116v-82h-192v82zM380 16.5 q-36 36.5 -36 89.5q0 55 36 92.5t91 37.5q53 0 91 -38t38 -92q0 -53 -38 -89.5t-91 -36.5q-55 0 -91 36.5z" />
<glyph unicode="@" horiz-adv-x="1904" d="M523.5 -161.5q-191.5 106.5 -299 292.5t-107.5 416q0 227 110.5 411.5t305 290t434.5 105.5q233 0 423.5 -99.5t299 -272.5t108.5 -386q0 -133 -44 -238.5t-122 -165t-176 -59.5q-84 0 -148.5 43t-90.5 127q-109 -170 -308 -170q-111 0 -197.5 51.5t-136 141.5t-49.5 204 q0 115 49.5 205t136.5 141.5t197 51.5q178 0 283 -133l31 112h125v-467q0 -80 32.5 -126t89.5 -46q76 0 121 83t45 216q0 182 -87 328.5t-240.5 228.5t-345.5 82q-195 0 -350.5 -84t-242.5 -233.5t-87 -337.5q0 -190 86 -344t240.5 -241t353.5 -87q129 0 232 29t169 78 l199 -33q-100 -102 -258 -161.5t-349 -59.5q-241 0 -432.5 106.5zM1115.5 354.5q66.5 67.5 66.5 175.5q0 109 -66.5 176.5t-173.5 67.5q-104 0 -169.5 -67.5t-65.5 -176.5t65.5 -176t169.5 -67q107 0 173.5 67.5z" />
<glyph unicode="A" horiz-adv-x="1443" d="M1419 0h-225l-119 328h-706l-123 -328h-221l557 1444h299zM711 1231l-269 -711h564l-258 711h-37z" />
<glyph unicode="B" horiz-adv-x="1310" d="M1144.5 613q67.5 -89 67.5 -214q0 -117 -59 -208t-164.5 -141t-243.5 -50h-587v1444h549q137 0 242.5 -50.5t165 -139.5t59.5 -201q0 -113 -56.5 -196t-156.5 -120q116 -35 183.5 -124zM369 1257v-438h338q113 0 182 60.5t69 156.5q0 98 -69.5 159.5t-181.5 61.5h-338z M745 186q111 0 180.5 62.5t69.5 163.5q0 98 -69.5 159.5t-180.5 61.5h-376v-447h376z" />
<glyph unicode="C" horiz-adv-x="1492" d="M430 75q-162 95 -253 265t-91 383t91 382t252 264t364 95q219 0 390 -109.5t244 -295.5l-208 -33q-57 115 -169 179.5t-251 64.5q-143 0 -255 -70t-174.5 -193.5t-62.5 -283.5q0 -162 62.5 -286t175 -193.5t258.5 -69.5q143 0 254.5 66.5t171.5 187.5l209 -33 q-78 -190 -252 -302.5t-391 -112.5q-203 0 -365 95z" />
<glyph unicode="D" horiz-adv-x="1527" d="M158 0v1444h536q217 0 387 -92t265.5 -256t95.5 -373t-95.5 -374t-265.5 -257t-387 -92h-536zM694 195q156 0 276 66.5t186.5 186t66.5 275.5q0 154 -66.5 273.5t-186.5 186t-276 66.5h-325v-1054h325z" />
<glyph unicode="E" horiz-adv-x="1212" d="M1096 0h-938v1444h917v-195h-706v-428h641v-186h-641v-440h727v-195z" />
<glyph unicode="F" horiz-adv-x="1165" d="M369 0h-211v1444h911v-195h-700v-461h635v-194h-635v-594z" />
<glyph unicode="G" horiz-adv-x="1581" d="M823 756h690v-37q0 -215 -88 -383t-248.5 -262t-367.5 -94t-372 95t-258 264t-93 384q0 213 91 382t253 264t365 95q219 0 391 -109.5t248 -295.5l-209 -33q-66 119 -175.5 181.5t-248.5 62.5q-143 0 -256 -70t-175.5 -193.5t-62.5 -283.5t63.5 -285t178.5 -194.5 t260 -69.5q186 0 313 106.5t166 288.5h-465v187z" />
<glyph unicode="H" horiz-adv-x="1466" d="M1098 827v617h211v-1444h-211v633h-729v-633h-211v1444h211v-617h729z" />
<glyph unicode="I" horiz-adv-x="548" d="M379 0h-211v1444h211v-1444z" />
<glyph unicode="J" horiz-adv-x="794" d="M55 0l-20 195h207q94 0 143 57t49 170v1022h211v-1022q0 -203 -104.5 -312.5t-298.5 -109.5h-187z" />
<glyph unicode="K" horiz-adv-x="1298" d="M604 748l690 -748h-280l-582 637h-63v-637h-211v1444h211v-604h63l547 604h264z" />
<glyph unicode="L" horiz-adv-x="1114" d="M1079 0h-921v1444h211v-1249h710v-195z" />
<glyph unicode="M" horiz-adv-x="1875" d="M365 0h-207v1444h342l424 -1141h30l428 1141h334v-1444h-207v1180h-28l-445 -1180h-202l-439 1180h-30v-1180z" />
<glyph unicode="N" horiz-adv-x="1560" d="M365 0h-207v1444h325l682 -1198h31v1198h205v-1444h-324l-684 1200h-28v-1200z" />
<glyph unicode="O" horiz-adv-x="1636" d="M439 75q-167 95 -260 264t-93 384t93 384t260 263t380 94q211 0 377 -94t259 -263t93 -384t-93 -384t-259 -264t-377 -95q-213 0 -380 95zM1084.5 243.5q115.5 69.5 180 193.5t64.5 286q0 160 -64.5 283.5t-180 193.5t-265.5 70t-266.5 -70t-181 -193.5t-64.5 -283.5 q0 -162 64.5 -286t181.5 -193.5t266 -69.5q150 0 265.5 69.5z" />
<glyph unicode="P" horiz-adv-x="1220" d="M158 0v1444h491q147 0 265 -60.5t184.5 -170t66.5 -248.5t-66.5 -248t-184 -169.5t-265.5 -60.5h-280v-487h-211zM649 680q133 0 216 79t83 206t-83 205.5t-216 78.5h-280v-569h280z" />
<glyph unicode="Q" horiz-adv-x="1636" d="M1466 358.5q-82 -161.5 -229 -260.5l201 -305h-234l-145 221q-115 -35 -240 -34q-213 0 -380 95t-260 264t-93 384t93 384t260 263t380 94q211 0 377 -94t259 -263t93 -384q0 -203 -82 -364.5zM944 188l-219 332h233l166 -250q96 72 150.5 188.5t54.5 264.5 q0 160 -64.5 283.5t-180 193.5t-265.5 70t-266.5 -70t-181 -193.5t-64.5 -283.5q0 -162 64.5 -286t181.5 -193.5t266 -69.5q70 0 125 14z" />
<glyph unicode="R" horiz-adv-x="1294" d="M1217 0h-248l-394 549h-206v-549h-211v1444h508q147 0 264 -57.5t181.5 -159t64.5 -232.5q0 -164 -100.5 -279.5t-268.5 -152.5zM369 1249v-508h297q131 0 211.5 71t80.5 183q0 113 -80.5 183.5t-211.5 70.5h-297z" />
<glyph unicode="S" horiz-adv-x="1198" d="M265.5 83q-146.5 103 -199.5 282l202 32q59 -115 141.5 -169t200.5 -54q121 0 197 54.5t76 148.5q0 70 -42 117t-105.5 75.5t-166.5 63.5q-137 45 -225 90t-148.5 128t-60.5 212q0 121 60.5 212t167 140t237.5 49q182 0 313 -95t187 -261l-199 -33q-41 94 -116.5 144.5 t-178.5 50.5q-111 0 -182.5 -52.5t-71.5 -142.5q0 -68 42 -115t104.5 -75.5t167.5 -65.5q133 -45 222 -91t150.5 -130t61.5 -211q0 -123 -64.5 -215t-176 -142t-249.5 -50q-198 0 -344.5 103z" />
<glyph unicode="T" horiz-adv-x="1265" d="M737 0h-211v1249h-501v195h1216v-195h-504v-1249z" />
<glyph unicode="U" horiz-adv-x="1423" d="M413 54.5q-130 74.5 -203 207.5t-73 301v881h211v-881q0 -115 46 -203t128 -137t187 -49q106 0 189 49t129 137.5t46 202.5v881h211v-881q0 -170 -73.5 -302t-205 -206.5t-296.5 -74.5q-166 0 -296 74.5z" />
<glyph unicode="V" horiz-adv-x="1417" d="M856 0h-313l-518 1444h227l432 -1231h37l448 1231h224z" />
<glyph unicode="W" horiz-adv-x="2039" d="M719 0h-330l-364 1444h219l305 -1231h29l315 1231h248l299 -1231h30l330 1231h215l-391 -1444h-332l-264 1106h-31z" />
<glyph unicode="X" horiz-adv-x="1304" d="M270 0h-245l475 741l-430 703h249l322 -547h31l336 547h243l-438 -694l467 -750h-250l-356 592h-29z" />
<glyph unicode="Y" horiz-adv-x="1302" d="M748 0h-211v424l-533 1020h236l387 -758h37l403 758h229l-548 -1018v-426z" />
<glyph unicode="Z" horiz-adv-x="1271" d="M1176 0h-1070v242l814 970v31h-793v201h1038v-242l-811 -971v-30h822v-201z" />
<glyph unicode="[" horiz-adv-x="653" d="M616 -420h-458v1915h458v-184h-260v-1547h260v-184z" />
<glyph unicode="\" horiz-adv-x="792" d="M793 -410h-199l-594 1905h199z" />
<glyph unicode="]" horiz-adv-x="653" d="M494 -420h-459v184h260v1547h-260v184h459v-1915z" />
<glyph unicode="^" horiz-adv-x="995" d="M266 793h-190l319 651h205l318 -651h-191l-217 452h-29z" />
<glyph unicode="_" horiz-adv-x="991" d="M1001 -420h-1011v174h1011v-174z" />
<glyph unicode="a" horiz-adv-x="1105" d="M865.5 951q113.5 -128 113.5 -357v-594h-143l-48 166q-51 -80 -137 -133t-207 -53q-106 0 -190 43t-131 119.5t-47 172.5q0 150 118.5 240t344.5 90h239q-8 125 -69.5 193.5t-163.5 68.5q-78 0 -137.5 -36.5t-90.5 -96.5l-186 31q41 127 158 200.5t266 73.5 q197 0 310.5 -128zM697 234.5q81 84.5 81 234.5v12h-233q-266 0 -266 -159q0 -78 57 -125t151 -47q129 0 210 84.5z" />
<glyph unicode="b" horiz-adv-x="1339" d="M509 36q-101 56 -167 140l-49 -176h-146v1444h201v-553q66 80 166 134t231 54q150 0 266.5 -70.5t183.5 -195.5t67 -285q0 -158 -67 -282.5t-183.5 -195t-266.5 -70.5q-135 0 -236 56zM885 207q80 47 124 131t44 190t-44 190.5t-124 131.5t-183 47q-102 0 -183 -47 t-126 -131t-45 -191q0 -106 45 -190t126 -131t183 -47q103 0 183 47z" />
<glyph unicode="c" horiz-adv-x="1165" d="M341 50.5q-126 70.5 -195.5 195.5t-69.5 282q0 160 69.5 285t194.5 195.5t285 70.5q170 0 304 -82t191 -235l-188 -31q-37 74 -116 119t-179 45q-156 0 -253 -102.5t-97 -264.5t97 -263t253 -101q104 0 185 47t118 125l188 -31q-57 -156 -195 -240.5t-308 -84.5 q-158 0 -284 70.5z" />
<glyph unicode="d" horiz-adv-x="1339" d="M326.5 50.5q-117.5 70.5 -184 195.5t-66.5 282q0 160 66.5 285t184 195.5t267.5 70.5q131 0 231.5 -54t163.5 -134v553h201v-1444h-143l-50 176q-66 -84 -167 -140t-236 -56q-150 0 -267.5 70.5zM891 262.5q98 102.5 98 265.5q0 164 -98 266.5t-254 102.5t-253 -102.5 t-97 -266.5t97 -266t253 -102t254 102.5z" />
<glyph unicode="e" horiz-adv-x="1218" d="M1159 473h-874q16 -141 110 -225t240 -84q100 0 179 40t120 105l188 -30q-61 -143 -197.5 -221t-301.5 -78q-158 0 -283 70.5t-194.5 195.5t-69.5 282q0 160 69.5 285t192.5 195.5t280 70.5q156 0 280 -70.5t193.5 -194.5t69.5 -277q0 -41 -2 -64zM411 829.5 q-87 -71.5 -116 -192.5h647q-27 119 -114 191.5t-210 72.5q-120 0 -207 -71.5z" />
<glyph unicode="f" horiz-adv-x="763" d="M418 1059h323v-178h-323v-881h-201v881h-182v178h182v67q0 154 87 236t251 82h186l19 -176h-205q-137 0 -137 -142v-67z" />
<glyph unicode="g" horiz-adv-x="1292" d="M301 -336q-137 84 -192 232l196 32q45 -80 125 -122t186 -42q150 0 244 86.5t94 260.5v114q-63 -80 -158.5 -128t-217.5 -48q-145 0 -259 65.5t-178.5 182.5t-64.5 266q0 150 64.5 266.5t178 183t259.5 66.5q129 0 226 -51t159 -137l49 174h143v-956q0 -166 -71.5 -286 t-194.5 -181.5t-275 -61.5q-176 0 -313 84zM861 321.5q93 92.5 93 241.5q0 150 -93 242t-240 92q-150 0 -242 -92t-92 -242t92 -242t242 -92q147 0 240 92.5z" />
<glyph unicode="h" horiz-adv-x="1185" d="M147 0v1444h201v-529q53 78 134 121t177 43q115 0 206 -56t142.5 -155.5t51.5 -224.5v-643h-201v625q0 121 -68.5 196.5t-177.5 75.5q-113 0 -188.5 -77t-75.5 -195v-625h-201z" />
<glyph unicode="i" horiz-adv-x="497" d="M348 0h-201v1059h201v-1059zM155.5 1261.5q-36.5 34.5 -36.5 92.5q0 55 36.5 91t94.5 36q53 0 90 -36t37 -91t-36 -91t-91 -36q-58 0 -94.5 34.5z" />
<glyph unicode="j" horiz-adv-x="507" d="M-135 -420l-19 184h185q137 0 137 140v1155h201v-1161q0 -154 -86 -236t-252 -82h-166zM176.5 1261.5q-36.5 34.5 -36.5 92.5q0 55 36.5 91t94.5 36q53 0 90 -36t37 -91t-36 -91t-91 -36q-58 0 -94.5 34.5z" />
<glyph unicode="k" horiz-adv-x="1071" d="M1067 0h-264l-391 438h-64v-438h-201v1444h201v-813h62l374 428h242l-455 -512z" />
<glyph unicode="l" horiz-adv-x="497" d="M348 0h-201v1444h201v-1444z" />
<glyph unicode="m" horiz-adv-x="1765" d="M137 0v1059h146l41 -152q45 78 120.5 125t180.5 47q106 0 190 -53t125 -145q43 88 127 143t197 55q111 0 195.5 -55t131.5 -153.5t47 -225.5v-645h-200v631q0 121 -60.5 194.5t-158.5 73.5q-100 0 -165 -73.5t-65 -194.5v-631h-201v631q0 121 -61 194.5t-160 73.5 q-100 0 -164.5 -73.5t-64.5 -194.5v-631h-201z" />
<glyph unicode="n" horiz-adv-x="1175" d="M137 0v1059h146l45 -160q53 86 137 133t184 47q115 0 206 -56t142.5 -155.5t51.5 -224.5v-643h-201v625q0 121 -68.5 196.5t-177.5 75.5q-113 0 -188.5 -77t-75.5 -195v-625h-201z" />
<glyph unicode="o" horiz-adv-x="1271" d="M346 49.5q-127 69.5 -198.5 194.5t-71.5 284q0 160 71.5 285t198.5 195.5t289 70.5t289 -70.5t198.5 -195.5t71.5 -285t-71.5 -284.5t-198.5 -194t-289 -69.5t-289 69.5zM888 264.5q97 100.5 97 263.5q0 164 -97 265.5t-253 101.5t-252 -101.5t-96 -265.5q0 -162 96 -263 t252 -101t253 100.5z" />
<glyph unicode="p" horiz-adv-x="1329" d="M137 -420v1479h146l49 -176q66 84 167 140t236 56q150 0 266.5 -70.5t183 -195.5t66.5 -285q0 -158 -66.5 -282.5t-183 -195t-266.5 -70.5q-131 0 -231.5 54t-165.5 134v-588h-201zM874.5 207q79.5 47 123.5 131t44 190t-44 190.5t-123.5 131.5t-182.5 47 q-102 0 -183 -47t-126 -131t-45 -191q0 -106 45 -190t126 -131t183 -47q103 0 182.5 47z" />
<glyph unicode="q" horiz-adv-x="1329" d="M989 168q-63 -80 -163.5 -134t-231.5 -54q-150 0 -267.5 70.5t-184 195.5t-66.5 282q0 160 66.5 285t184 195.5t267.5 70.5q135 0 236.5 -56t166.5 -140l50 176h143v-1479h-201v588zM891 262.5q98 102.5 98 265.5q0 164 -98 266.5t-254 102.5t-253 -102.5t-97 -266.5 t97 -266t253 -102t254 102.5z" />
<glyph unicode="r" horiz-adv-x="700" d="M137 0v1059h146l43 -152q47 80 116.5 116t165.5 36h49l17 -193h-115q-111 0 -166 -63.5t-55 -171.5v-631h-201z" />
<glyph unicode="s" horiz-adv-x="1024" d="M219 61.5q-119 81.5 -153 223.5l192 30q29 -78 98.5 -119.5t167.5 -41.5q88 0 147.5 32.5t59.5 100.5q0 61 -58.5 94t-185.5 70q-113 33 -188.5 66.5t-127.5 96t-52 160.5q0 143 111.5 224t279.5 81q152 0 263.5 -76.5t158.5 -211.5l-187 -31q-35 70 -94 107.5t-139 37.5 q-78 0 -132 -32.5t-54 -92.5q0 -61 60 -96t183 -70q113 -33 190 -67.5t128 -96t51 -157.5q0 -88 -49 -159t-145.5 -112.5t-229.5 -41.5q-176 0 -295 81.5z" />
<glyph unicode="t" horiz-adv-x="804" d="M750 176l-19 -176h-186q-166 0 -252 82t-86 235v564h-182v178h182l55 307h146v-307h323v-178h-323v-564q0 -141 137 -141h205z" />
<glyph unicode="u" horiz-adv-x="1165" d="M319.5 36q-90.5 56 -141.5 155.5t-51 224.5v643h201v-627q0 -121 67.5 -196.5t173.5 -75.5q111 0 184.5 77.5t73.5 194.5v627h201v-1059h-143l-47 160q-51 -86 -134 -133t-182 -47q-112 0 -202.5 56z" />
<glyph unicode="v" horiz-adv-x="1122" d="M696 0h-278l-393 1059h215l303 -844h35l311 844h207z" />
<glyph unicode="w" horiz-adv-x="1652" d="M614 0h-299l-290 1059h206l230 -862h28l232 862h221l227 -862h31l227 862h199l-285 -1059h-299l-198 762h-31z" />
<glyph unicode="x" horiz-adv-x="1030" d="M240 0h-230l346 543l-305 516h230l217 -377h34l226 377h223l-305 -504l342 -555h-234l-247 422h-35z" />
<glyph unicode="y" horiz-adv-x="1142" d="M891 1059h207l-443 -1219q-49 -137 -129 -198.5t-213 -61.5h-157l-19 184h189q59 0 92 26t55 89l23 62l-471 1118h215l335 -817h29z" />
<glyph unicode="z" horiz-adv-x="1019" d="M944 0h-858v221l614 627v29h-596v182h834v-221l-614 -627v-31h620v-180z" />
<glyph unicode="{" horiz-adv-x="684" d="M549 -420q-322 0 -322 309v406q0 78 -35.5 114.5t-125.5 36.5v185q90 0 125.5 34.5t35.5 112.5v408q0 309 322 309h100v-184h-100q-63 0 -92 -30t-29 -95v-408q0 -104 -42 -154.5t-122 -70.5v-29q80 -20 122 -71.5t42 -157.5v-406q0 -66 28.5 -95.5t92.5 -29.5h100v-184 h-100z" />
<glyph unicode="|" horiz-adv-x="630" d="M410 -420h-191v1915h191v-1915z" />
<glyph unicode="}" horiz-adv-x="684" d="M35 -420v184h100q63 0 92 30t29 95v406q0 106 42 157.5t122 71.5v29q-80 20 -122 70.5t-42 154.5v408q0 66 -28.5 95.5t-92.5 29.5h-100v184h100q322 0 322 -309v-408q0 -78 35.5 -112.5t125.5 -34.5v-185q-90 0 -125.5 -36.5t-35.5 -114.5v-406q0 -309 -322 -309h-100z " />
<glyph unicode="~" d="M687 551q-54 27 -120 76q-45 35 -75.5 51t-67.5 16q-63 0 -99 -42t-36 -117h-178q0 156 79.5 242.5t223.5 86.5q82 0 137 -26.5t117 -75.5q45 -35 75.5 -51.5t67.5 -16.5q63 0 99 43t36 117h178q0 -156 -79.5 -243t-221.5 -87q-82 0 -136 27z" />
<glyph unicode="&#xa2;" horiz-adv-x="1163" d="M1128 483q-51 -133 -160.5 -215t-250.5 -104v-232h-182v232q-135 18 -240 93t-162 190.5t-57 259.5q0 143 57 258.5t161.5 190.5t240.5 93v232h182v-232q139 -20 245.5 -100t157.5 -209l-190 -31q-37 74 -116 119t-179 45q-156 0 -254 -101.5t-98 -264.5 q0 -164 98 -265.5t254 -101.5q104 0 186 48t119 126z" />
<glyph unicode="&#xa3;" horiz-adv-x="1200" d="M469 338q0 -59 -15.5 -94t-37.5 -49h735v-195h-1055v195h43q119 0 119 141v270h-160v170h160v240q0 131 56.5 233.5t158.5 158.5t234 56q170 0 285.5 -93t170.5 -263l-202 -33q-80 195 -252 195q-109 0 -174.5 -70t-65.5 -184v-240h455v-170h-455v-268z" />
<glyph unicode="&#xa4;" horiz-adv-x="1187" d="M211 184l-115 107l127 127q-78 109 -78 258q0 150 78 258l-127 129l115 104l121 -123q109 80 262 80q152 0 262 -80l121 123l115 -104l-129 -129q80 -117 79 -258q0 -141 -79 -258l129 -127l-115 -107l-121 123q-111 -80 -262 -80q-154 0 -262 80zM788.5 472 q75.5 79 75.5 204t-75.5 203.5t-194.5 78.5q-121 0 -196.5 -78.5t-75.5 -203.5t75.5 -204t196.5 -79q119 0 194.5 79z" />
<glyph unicode="&#xa5;" horiz-adv-x="1261" d="M1030 1444h225l-393 -756h258v-149h-334l-59 -113v-27h393v-151h-393v-248h-211v248h-393v151h393v25l-57 115h-336v149h260l-379 756h232l370 -756h39z" />
<glyph unicode="&#xa7;" horiz-adv-x="1146" d="M296 -172q-112 78 -165 221l195 33q80 -164 237 -164q76 0 130.5 36t54.5 103q0 61 -46.5 103.5t-136.5 70.5l-123 41q-164 53 -244.5 135t-80.5 205q0 104 57 179t158 116q-133 94 -133 242q0 90 50 162.5t138 112.5t201 40q152 0 263.5 -77.5t166.5 -221.5l-197 -32 q-80 164 -237 163q-76 0 -130.5 -35.5t-54.5 -103.5q0 -61 46.5 -103t138.5 -71l123 -41q164 -53 243.5 -135t79.5 -205q0 -104 -57.5 -179t-155.5 -116q131 -96 131 -241q0 -92 -49 -164t-138 -112t-202 -40q-151 0 -263 78zM649 393q88 18 140.5 68.5t52.5 120.5 t-52.5 114.5t-164.5 83.5l-127 41q-88 -18 -140.5 -69.5t-52.5 -118.5q0 -70 52.5 -115t166.5 -84z" />
<glyph unicode="&#xa9;" horiz-adv-x="1744" d="M486 77q-173 97 -271 267t-98 379t98 379t271 266t386 96t386.5 -96t271.5 -266t98 -379t-98 -379t-271.5 -267t-386.5 -97t-386 97zM1181.5 199.5q137.5 76.5 215.5 214t78 309.5q0 170 -78 307t-215.5 215t-309.5 78t-309 -78t-215 -215t-78 -307q0 -172 78 -309.5 t215 -214t309 -76.5t309.5 76.5zM698 411q-82 46 -128 128t-46 184t46 184t129 128t188 46q115 0 204 -56t126 -163l-146 -22q-23 47 -71 74.5t-109 27.5q-92 0 -151.5 -61.5t-59.5 -157.5t59.5 -157.5t151.5 -61.5q59 0 107.5 26.5t72.5 71.5l146 -24 q-39 -102 -129.5 -157.5t-202.5 -55.5q-105 0 -187 46z" />
<glyph unicode="&#xab;" horiz-adv-x="1097" d="M604 88h-231l-338 449l338 446h231l-336 -446zM1053 88h-234l-340 449l340 446h232l-340 -446z" />
<glyph unicode="&#xad;" horiz-adv-x="868" d="M752 479h-635v191h635v-191z" />
<glyph unicode="&#xae;" horiz-adv-x="1167" d="M832.5 1443.5q111.5 -61.5 175 -170t63.5 -243.5t-63.5 -243.5t-175 -171t-248.5 -62.5t-248 62.5t-175.5 171t-64.5 243.5q0 133 64.5 242.5t175 171t248.5 61.5q137 0 248.5 -61.5zM774 705.5q84 48.5 131 133.5t47 191t-47 190.5t-131 132.5t-190 48t-190.5 -48 t-131.5 -132t-47 -191q0 -106 47 -191t131 -133.5t191 -48.5q106 0 190 48.5zM759.5 1025q-26.5 -36 -71.5 -52l100 -164h-124l-91 149h-55v-149h-112v448h202q78 0 128 -41.5t50 -107.5q0 -47 -26.5 -83zM518 1165v-114h90q29 0 48.5 16t19.5 41t-19.5 41t-48.5 16h-90z " />
<glyph unicode="&#xb0;" horiz-adv-x="763" d="M155 937q-89 87 -89 222q0 133 89 219t226 86t226 -86t89 -219q0 -135 -89 -222t-226 -87t-226 87zM498 1039q45 46 45 120q0 72 -45 117t-117 45t-117 -45t-45 -117q0 -74 45 -120t117 -46t117 46z" />
<glyph unicode="&#xb1;" d="M705 414h-175v366h-393v174h393v365h175v-365h393v-174h-393v-366zM1098 125h-961v174h961v-174z" />
<glyph unicode="&#xb6;" horiz-adv-x="1169" d="M432 602q-117 0 -207 53.5t-140 148.5t-50 218t50 219t140 149.5t207 53.5h578v-1669h-170v1515h-236v-1515h-172v827z" />
<glyph unicode="&#xb7;" horiz-adv-x="491" d="M154 483.5q-37 36.5 -37 89.5t37 91.5t92 38.5q53 0 91 -38t38 -92q0 -53 -38 -89.5t-91 -36.5q-55 0 -92 36.5z" />
<glyph unicode="&#xbb;" horiz-adv-x="1097" d="M279 88h-234l342 449l-340 446h232l339 -446zM725 88h-231l335 449l-335 446h231l338 -446z" />
<glyph unicode="&#xd7;" d="M618 578l-303 -302l-116 115l303 303l-303 303l116 117l303 -303l302 303l116 -117l-303 -303l303 -303l-116 -115z" />
<glyph unicode="&#xf7;" d="M527.5 983q-35.5 37 -35.5 90t35.5 89t90.5 36q53 0 89 -36t36 -89t-36.5 -90t-88.5 -37q-55 0 -90.5 37zM1098 606h-961v176h961v-176zM527.5 226q-35.5 36 -35.5 89t35.5 90t90.5 37q51 0 88 -36.5t37 -90.5q0 -51 -35.5 -88t-89.5 -37q-55 0 -90.5 36z" />
<glyph unicode="&#x131;" horiz-adv-x="497" d="M348 0h-201v1059h201v-1059z" />
<glyph unicode="&#x237;" horiz-adv-x="507" d="M-135 -420l-19 184h185q137 0 137 140v1155h201v-1161q0 -154 -86 -236t-252 -82h-166z" />
<glyph unicode="&#x307;" horiz-adv-x="0" d="M-282.5 1261.5q-36.5 34.5 -36.5 92.5q0 55 36.5 91t94.5 36q53 0 90 -36t37 -91t-36 -91t-91 -36q-58 0 -94.5 34.5z" />
<glyph unicode="&#x2000;" horiz-adv-x="822" />
<glyph unicode="&#x2001;" horiz-adv-x="1645" />
<glyph unicode="&#x2002;" horiz-adv-x="822" />
<glyph unicode="&#x2003;" horiz-adv-x="1645" />
<glyph unicode="&#x2004;" horiz-adv-x="548" />
<glyph unicode="&#x2005;" horiz-adv-x="411" />
<glyph unicode="&#x2006;" horiz-adv-x="274" />
<glyph unicode="&#x2007;" horiz-adv-x="274" />
<glyph unicode="&#x2008;" horiz-adv-x="205" />
<glyph unicode="&#x2009;" horiz-adv-x="329" />
<glyph unicode="&#x200a;" horiz-adv-x="91" />
<glyph unicode="&#x2010;" horiz-adv-x="868" d="M752 479h-635v191h635v-191z" />
<glyph unicode="&#x2011;" horiz-adv-x="868" d="M752 479h-635v191h635v-191z" />
<glyph unicode="&#x2012;" horiz-adv-x="868" d="M752 479h-635v191h635v-191z" />
<glyph unicode="&#x2013;" horiz-adv-x="1206" d="M1108 487h-1012v175h1012v-175z" />
<glyph unicode="&#x2014;" horiz-adv-x="1691" d="M1595 487h-1499v175h1499v-175z" />
<glyph unicode="&#x2018;" horiz-adv-x="464" d="M289 977h-193l119 467h152z" />
<glyph unicode="&#x2019;" horiz-adv-x="464" d="M250 977h-154l78 467h193z" />
<glyph unicode="&#x201c;" horiz-adv-x="782" d="M289 977h-193l119 467h152zM606 977h-192l116 467h154z" />
<glyph unicode="&#x201d;" horiz-adv-x="782" d="M250 977h-154l78 467h193zM567 977h-153l78 467h192z" />
<glyph unicode="&#x2022;" horiz-adv-x="692" d="M183.5 411.5q-66.5 65.5 -66.5 161.5t66.5 163t162.5 67t161.5 -66.5t65.5 -163.5q0 -94 -65.5 -160.5t-161.5 -66.5t-162.5 65.5z" />
<glyph unicode="&#x2026;" horiz-adv-x="1482" d="M174 16.5q-37 36.5 -37 89.5t37 91.5t92 38.5q53 0 91 -38t38 -92q0 -53 -38 -89.5t-91 -36.5q-55 0 -92 36.5zM649 16.5q-37 36.5 -37 89.5t37 91.5t92 38.5q53 0 91 -38t38 -92q0 -53 -38 -89.5t-91 -36.5q-55 0 -92 36.5zM1124 16.5q-37 36.5 -37 89.5t37 91.5 t92 38.5q53 0 91 -38t38 -92q0 -53 -38 -89.5t-91 -36.5q-55 0 -92 36.5z" />
<glyph unicode="&#x202f;" horiz-adv-x="329" />
<glyph unicode="&#x2039;" horiz-adv-x="677" d="M631 88h-238l-358 449l358 446h238l-359 -446z" />
<glyph unicode="&#x203a;" horiz-adv-x="684" d="M291 88h-246l358 449l-358 446h246l358 -446z" />
<glyph unicode="&#x205f;" horiz-adv-x="411" />
<glyph unicode="&#x20ac;" horiz-adv-x="1495" d="M1438 358q-66 -174 -217.5 -276t-350.5 -102q-236 0 -400.5 138t-221.5 371h-193v148h170q-4 57 -4 86q0 35 2 53h-168v148h187q49 248 215 394t405 146q193 0 345.5 -99t224.5 -269l-209 -33q-57 98 -150.5 152.5t-208.5 54.5q-156 0 -259 -91.5t-142 -254.5h633 l-54 -148h-600q-2 -18 -2 -53q0 -29 4 -86h547l-53 -148h-465q45 -147 148.5 -231t250.5 -84q123 0 218.5 56.5t148.5 160.5z" />
<glyph unicode="&#x2122;" horiz-adv-x="1568" d="M428 813h-154v496h-219v135h590v-135h-217v-496zM864 813h-143v631h209l143 -404h17l145 404h207v-631h-144v408h-16l-152 -408h-102l-147 408h-17v-408z" />
<glyph unicode="&#x25fc;" horiz-adv-x="1054" d="M0 1055h1055v-1055h-1055v1055z" />
</font>
</defs>
</svg>
